<svg width="369" height="410" viewBox="0 0 369 410" fill="none" xmlns="http://www.w3.org/2000/svg">
<path fill-rule="evenodd" clip-rule="evenodd" d="M121.095 22.9225C154.362 -3.28308 202.282 -2.41677 244.132 4.07487C286.4 10.6314 334.643 23.0267 356.982 59.5125C379.253 95.8859 353.707 142.213 354.812 184.847C355.607 215.504 363.218 243.993 362.561 274.654C361.645 317.393 383.921 373.421 350.207 399.692C316.176 426.21 266.976 390.327 224.613 382.147C195.342 376.495 168.997 366.32 140.069 359.114C101.541 349.517 53.7626 361.527 26.3777 332.77C-0.853685 304.174 -3.67529 256.725 6.1467 218.48C15.3646 182.588 58.1994 167.696 76.9763 135.752C97.8621 100.219 88.7206 48.4256 121.095 22.9225Z" fill="#94F2E9"/>
</svg>
